<svg width="268" height="45" viewBox="0 0 268 45" fill="none" xmlns="http://www.w3.org/2000/svg">
<path d="M236.954 29.604C235.946 29.604 235.046 29.28 234.254 28.632C233.498 27.948 233.03 26.94 232.85 25.608C232.706 24.276 232.994 22.692 233.714 20.856L236.684 13.08C236.864 12.576 236.9 12.252 236.792 12.108C236.684 11.964 236.576 11.892 236.468 11.892C236.252 11.892 235.838 12.018 235.226 12.27C234.65 12.522 234.11 12.828 233.606 13.188C233.354 13.332 233.102 13.476 232.85 13.62C232.634 13.764 232.472 13.836 232.364 13.836C231.896 13.836 231.662 13.602 231.662 13.134C231.662 12.954 231.752 12.702 231.932 12.378C232.112 12.018 232.4 11.64 232.796 11.244C233.408 10.632 234.128 10.002 234.956 9.35398C235.784 8.66999 236.648 8.03999 237.548 7.46399C238.484 6.85199 239.366 6.36599 240.194 6.00599C241.058 5.60999 241.796 5.41199 242.408 5.41199C243.02 5.41199 243.524 5.57399 243.92 5.89799C244.352 6.22199 244.568 6.77999 244.568 7.57199C244.604 8.36399 244.352 9.46199 243.812 10.866L239.762 21.504C239.33 22.728 239.33 23.646 239.762 24.258C240.194 24.87 240.806 25.176 241.598 25.176C242.066 25.176 242.588 24.96 243.164 24.528C243.776 24.06 244.388 23.448 245 22.692C245.612 21.936 246.17 21.09 246.674 20.154C247.214 19.218 247.664 18.228 248.024 17.184C248.204 16.788 248.33 16.356 248.402 15.888C248.51 15.42 248.582 14.934 248.618 14.43C248.69 13.89 248.78 13.332 248.888 12.756C248.996 12.18 249.122 11.568 249.266 10.92C249.302 10.596 249.446 10.182 249.698 9.67799C249.986 9.13799 250.346 8.66999 250.778 8.27399C251.354 7.76999 251.894 7.39199 252.398 7.13999C252.902 6.85199 253.676 6.70799 254.72 6.70799C255.188 6.70799 255.566 6.86999 255.854 7.19399C256.178 7.51799 256.376 8.03999 256.448 8.75999C256.52 9.47999 256.376 10.416 256.016 11.568C255.656 12.72 255.17 13.818 254.558 14.862C253.982 15.906 253.46 16.878 252.992 17.778C252.632 18.462 252.344 19.164 252.128 19.884C251.912 20.604 251.822 21.252 251.858 21.828C251.822 22.764 251.984 23.556 252.344 24.204C252.74 24.852 253.388 25.176 254.288 25.176C255.152 25.176 255.998 24.852 256.826 24.204C257.69 23.52 258.482 22.638 259.202 21.558C259.958 20.478 260.552 19.308 260.984 18.048C261.452 16.752 261.686 15.492 261.686 14.268C261.686 13.584 261.596 12.99 261.416 12.486C261.272 11.982 261.074 11.478 260.822 10.974C260.498 10.362 260.21 9.85799 259.958 9.46199C259.706 9.06599 259.58 8.75999 259.58 8.54399C259.58 8.25599 259.868 7.85999 260.444 7.35599C261.02 6.85199 261.686 6.40199 262.442 6.00599C263.198 5.60999 263.846 5.41199 264.386 5.41199C264.962 5.41199 265.484 5.77199 265.952 6.49199C266.42 7.21199 266.654 8.34599 266.654 9.89399C266.654 11.406 266.33 12.972 265.682 14.592C265.07 16.212 264.242 17.814 263.198 19.398C262.19 20.982 261.056 22.494 259.796 23.934C258.356 25.626 256.808 26.994 255.152 28.038C253.532 29.082 251.948 29.604 250.4 29.604C249.14 29.604 248.132 29.244 247.376 28.524C246.62 27.768 246.17 26.796 246.026 25.608C245.918 24.384 246.098 23.034 246.566 21.558L246.782 23.34C245.99 24.6 245.072 25.698 244.028 26.634C243.02 27.57 241.922 28.308 240.734 28.848C239.546 29.352 238.286 29.604 236.954 29.604Z" fill="#586B45"/>
<path d="M213.139 29.604C211.771 29.604 210.475 29.28 209.251 28.632C208.063 27.984 207.109 27.084 206.389 25.932C205.669 24.78 205.309 23.448 205.309 21.936C205.309 20.28 205.651 18.498 206.335 16.59C207.055 14.682 208.099 12.9 209.467 11.244C210.835 9.552 212.473 8.166 214.381 7.086C216.325 6.006 218.521 5.466 220.969 5.466C223.381 5.466 225.307 6.15 226.747 7.518C228.223 8.886 228.961 10.776 228.961 13.188C228.961 14.844 228.601 16.626 227.881 18.534C227.197 20.406 226.171 22.188 224.803 23.88C223.435 25.536 221.761 26.904 219.781 27.984C217.837 29.064 215.623 29.604 213.139 29.604ZM214.165 27.498C214.885 27.498 215.605 27.102 216.325 26.31C217.081 25.518 217.783 24.474 218.431 23.178C219.115 21.846 219.727 20.388 220.267 18.804C220.807 17.22 221.221 15.636 221.509 14.052C221.833 12.468 221.995 11.028 221.995 9.732C221.995 8.976 221.851 8.418 221.563 8.058C221.275 7.662 220.807 7.464 220.159 7.464C219.547 7.464 218.881 7.86001 218.161 8.65201C217.441 9.40801 216.739 10.452 216.055 11.784C215.371 13.08 214.741 14.52 214.165 16.104C213.625 17.652 213.175 19.218 212.815 20.802C212.455 22.35 212.275 23.79 212.275 25.122C212.275 25.914 212.455 26.508 212.815 26.904C213.175 27.3 213.625 27.498 214.165 27.498Z" fill="#586B45"/>
<path d="M185.851 29.658C185.527 29.658 185.113 29.55 184.609 29.334C184.105 29.118 183.655 28.83 183.259 28.47C182.899 28.11 182.719 27.678 182.719 27.174C182.719 26.922 182.755 26.652 182.827 26.364C182.899 26.076 182.989 25.77 183.097 25.446L188.551 11.298C188.695 10.938 188.713 10.65 188.605 10.434C188.533 10.182 188.317 10.056 187.957 10.056C187.237 10.056 186.643 10.2 186.175 10.488C185.743 10.776 185.275 11.118 184.771 11.514C184.591 11.658 184.357 11.73 184.069 11.73C183.817 11.694 183.673 11.532 183.637 11.244C183.565 10.488 183.853 9.73199 184.501 8.97599C185.149 8.21999 185.977 7.57199 186.985 7.03199C187.777 6.52799 188.623 6.14999 189.523 5.89799C190.459 5.60999 191.359 5.46599 192.223 5.46599C193.231 5.46599 193.951 5.75399 194.383 6.32999C194.851 6.86999 195.067 7.60799 195.031 8.54399C195.031 9.47999 194.761 10.542 194.221 11.73L192.169 16.644C192.025 16.896 192.061 17.04 192.277 17.076C192.493 17.112 192.673 17.004 192.817 16.752C194.077 14.52 195.301 12.558 196.489 10.866C197.713 9.17399 198.937 7.84199 200.161 6.86999C201.421 5.89799 202.699 5.41199 203.995 5.41199C205.147 5.41199 206.011 5.75399 206.587 6.43799C207.199 7.08599 207.505 7.89599 207.505 8.86799C207.505 9.80399 207.289 10.722 206.857 11.622C206.425 12.522 205.885 13.26 205.237 13.836C204.625 14.376 204.031 14.646 203.455 14.646C203.059 14.646 202.753 14.466 202.537 14.106C202.321 13.71 202.141 13.134 201.997 12.378C201.889 11.766 201.727 11.226 201.511 10.758C201.295 10.254 200.971 10.002 200.539 10.002C199.891 10.002 199.243 10.416 198.595 11.244C197.983 12.036 197.263 13.152 196.435 14.592C196.147 15.024 195.733 15.69 195.193 16.59C194.689 17.49 194.131 18.48 193.519 19.56C192.907 20.64 192.295 21.702 191.683 22.746C191.071 23.79 190.549 24.69 190.117 25.446C189.433 26.67 188.713 27.678 187.957 28.47C187.201 29.262 186.499 29.658 185.851 29.658Z" fill="#586B45"/>
<path d="M162.05 44.508C159.818 44.508 157.784 44.256 155.948 43.752C154.148 43.284 152.708 42.618 151.628 41.754C150.548 40.926 150.008 39.972 150.008 38.892C150.008 37.884 150.476 36.966 151.412 36.138C152.348 35.346 153.608 34.626 155.192 33.978C156.74 33.33 158.45 32.754 160.322 32.25C160.754 32.106 160.79 31.944 160.43 31.764C159.71 31.332 159.044 30.774 158.432 30.09C157.82 29.442 157.514 28.758 157.514 28.038C157.514 27.246 157.928 26.544 158.756 25.932C159.62 25.284 160.664 24.636 161.888 23.988C162.104 23.844 162.266 23.718 162.374 23.61C162.518 23.466 162.59 23.358 162.59 23.286C162.59 23.142 162.41 22.998 162.05 22.854C161.402 22.53 160.754 22.098 160.106 21.558C159.458 21.018 158.918 20.37 158.486 19.614C158.09 18.822 157.892 17.958 157.892 17.022C157.892 15.87 158.162 14.646 158.702 13.35C159.242 12.018 160.016 10.758 161.024 9.57001C162.032 8.34601 163.292 7.356 164.804 6.6C166.316 5.844 168.062 5.466 170.042 5.466C170.726 5.466 171.374 5.574 171.986 5.79C172.598 5.97 173.156 6.168 173.66 6.384C174.236 6.636 174.758 6.87 175.226 7.086C175.694 7.266 176.072 7.356 176.36 7.356C176.972 7.356 177.566 7.284 178.142 7.14001C178.754 6.996 179.33 6.852 179.87 6.708C180.446 6.564 180.968 6.492 181.436 6.492C181.688 6.492 181.976 6.6 182.3 6.816C182.66 6.996 182.84 7.374 182.84 7.95C182.84 8.598 182.696 9.13801 182.408 9.57001C182.156 10.002 181.814 10.218 181.382 10.218C181.058 10.218 180.68 10.182 180.248 10.11C179.852 10.038 179.42 9.984 178.952 9.948C178.52 9.876 178.106 9.84 177.71 9.84C177.53 9.84 177.368 9.876 177.224 9.948C177.08 9.984 177.044 10.146 177.116 10.434C177.188 10.686 177.224 10.938 177.224 11.19C177.26 11.406 177.278 11.64 177.278 11.892C177.278 13.332 176.99 14.772 176.414 16.212C175.838 17.616 175.028 18.894 173.984 20.046C172.976 21.162 171.77 22.062 170.366 22.746C168.998 23.43 167.486 23.772 165.83 23.772C165.506 23.772 165.164 23.772 164.804 23.772C164.48 23.736 164.228 23.754 164.048 23.826C163.688 24.078 163.508 24.384 163.508 24.744C163.508 25.14 163.688 25.554 164.048 25.986C164.444 26.382 164.966 26.814 165.614 27.282C166.298 27.714 167.09 28.218 167.99 28.794C168.89 29.334 169.79 29.892 170.69 30.468C171.626 31.044 172.508 31.602 173.336 32.142C174.2 32.718 174.866 33.33 175.334 33.978C175.802 34.662 176.036 35.364 176.036 36.084C176.036 37.164 175.622 38.19 174.794 39.162C174.002 40.17 172.922 41.07 171.554 41.862C170.222 42.654 168.728 43.284 167.072 43.752C165.452 44.256 163.778 44.508 162.05 44.508ZM164.372 42.564C165.308 42.564 166.208 42.402 167.072 42.078C167.936 41.79 168.638 41.376 169.178 40.836C169.718 40.296 169.988 39.702 169.988 39.054C169.988 38.658 169.844 38.226 169.556 37.758C169.304 37.326 168.944 36.966 168.476 36.678C167.72 36.174 166.82 35.598 165.776 34.95C164.732 34.338 163.886 33.87 163.238 33.546C162.95 33.402 162.68 33.33 162.428 33.33C162.212 33.33 162.014 33.348 161.834 33.384C161.69 33.42 161.528 33.474 161.348 33.546C159.62 34.05 158.306 34.644 157.406 35.328C156.542 36.048 156.11 37.02 156.11 38.244C156.11 39 156.398 39.702 156.974 40.35C157.586 41.034 158.504 41.574 159.728 41.97C160.952 42.366 162.5 42.564 164.372 42.564ZM164.912 21.612C165.524 21.684 166.172 21.432 166.856 20.856C167.54 20.28 168.188 19.506 168.8 18.534C169.412 17.562 169.97 16.518 170.474 15.402C170.978 14.25 171.374 13.152 171.662 12.108C171.986 11.028 172.148 10.128 172.148 9.408C172.148 8.724 172.004 8.184 171.716 7.788C171.464 7.392 171.122 7.19401 170.69 7.19401C170.114 7.19401 169.502 7.5 168.854 8.11201C168.242 8.688 167.63 9.462 167.018 10.434C166.406 11.37 165.848 12.396 165.344 13.512C164.84 14.592 164.426 15.654 164.102 16.698C163.814 17.706 163.67 18.57 163.67 19.29C163.67 20.082 163.778 20.658 163.994 21.018C164.246 21.378 164.552 21.576 164.912 21.612Z" fill="#586B45"/>
<path d="M137.267 14.592C137.267 15.5947 137.395 16.4907 137.651 17.28C137.928 18.048 138.301 18.6986 138.771 19.232C139.24 19.744 139.784 20.1387 140.403 20.416C141.043 20.6933 141.715 20.832 142.419 20.832C143.123 20.832 143.784 20.6933 144.403 20.416C145.043 20.1387 145.597 19.744 146.067 19.232C146.536 18.6986 146.899 18.048 147.155 17.28C147.432 16.4907 147.571 15.5947 147.571 14.592C147.571 13.5893 147.432 12.704 147.155 11.936C146.899 11.1466 146.536 10.4853 146.067 9.95198C145.597 9.41865 145.043 9.01332 144.403 8.73598C143.784 8.45865 143.123 8.31998 142.419 8.31998C141.715 8.31998 141.043 8.45865 140.403 8.73598C139.784 9.01332 139.24 9.41865 138.771 9.95198C138.301 10.4853 137.928 11.1466 137.651 11.936C137.395 12.704 137.267 13.5893 137.267 14.592ZM134.387 14.592C134.387 13.376 134.557 12.2453 134.899 11.2C135.24 10.1333 135.752 9.21598 136.435 8.44798C137.117 7.65865 137.96 7.03998 138.963 6.59198C139.965 6.14398 141.117 5.91998 142.419 5.91998C143.741 5.91998 144.893 6.14398 145.875 6.59198C146.877 7.03998 147.72 7.65865 148.403 8.44798C149.085 9.21598 149.597 10.1333 149.939 11.2C150.28 12.2453 150.451 13.376 150.451 14.592C150.451 15.808 150.28 16.9387 149.939 17.984C149.597 19.0293 149.085 19.9467 148.403 20.736C147.72 21.504 146.877 22.112 145.875 22.56C144.893 22.9867 143.741 23.2 142.419 23.2C141.117 23.2 139.965 22.9867 138.963 22.56C137.96 22.112 137.117 21.504 136.435 20.736C135.752 19.9467 135.24 19.0293 134.899 17.984C134.557 16.9387 134.387 15.808 134.387 14.592Z" fill="black"/>
<path d="M128.964 6.304H132.26V8.70399H128.964V18.976C128.964 19.296 128.985 19.552 129.028 19.744C129.092 19.936 129.198 20.0853 129.348 20.192C129.497 20.2987 129.7 20.3733 129.956 20.416C130.233 20.4373 130.585 20.448 131.012 20.448H132.26V22.848H130.18C129.476 22.848 128.868 22.8053 128.356 22.72C127.865 22.6133 127.46 22.432 127.14 22.176C126.841 21.92 126.617 21.5573 126.468 21.088C126.318 20.6187 126.244 20 126.244 19.232V8.70399H123.428V6.304H126.244V1.34399H128.964V6.304Z" fill="black"/>
<path d="M106.778 25.056C106.458 25.8666 106.138 26.5493 105.818 27.104C105.52 27.6586 105.178 28.1066 104.794 28.448C104.432 28.8106 104.016 29.0666 103.546 29.216C103.098 29.3866 102.576 29.472 101.978 29.472C101.658 29.472 101.338 29.4506 101.018 29.408C100.698 29.3653 100.389 29.2906 100.09 29.184V26.688C100.325 26.7946 100.592 26.88 100.89 26.944C101.21 27.0293 101.477 27.072 101.69 27.072C102.245 27.072 102.704 26.9333 103.066 26.656C103.45 26.4 103.738 26.0266 103.93 25.536L105.05 22.752L98.4902 6.30396H101.562L106.394 19.84H106.458L111.098 6.30396H113.978L106.778 25.056Z" fill="black"/>
<path d="M94.5832 12.992C94.5406 12.352 94.3912 11.744 94.1352 11.168C93.9005 10.592 93.5699 10.1013 93.1432 9.69598C92.7379 9.26932 92.2472 8.93865 91.6712 8.70398C91.1166 8.44798 90.4979 8.31998 89.8152 8.31998C89.1112 8.31998 88.4712 8.44798 87.8952 8.70398C87.3406 8.93865 86.8605 9.26932 86.4552 9.69598C86.0499 10.1227 85.7299 10.624 85.4952 11.2C85.2605 11.7546 85.1219 12.352 85.0792 12.992H94.5832ZM97.2072 17.6C96.8446 19.456 96.0446 20.8533 94.8072 21.792C93.5699 22.7307 92.0125 23.2 90.1352 23.2C88.8125 23.2 87.6606 22.9867 86.6792 22.56C85.7192 22.1333 84.9085 21.536 84.2472 20.768C83.5859 20 83.0846 19.0827 82.7432 18.016C82.4232 16.9493 82.2419 15.7867 82.1992 14.528C82.1992 13.2693 82.3912 12.1173 82.7752 11.072C83.1592 10.0267 83.6926 9.11998 84.3752 8.35198C85.0792 7.58398 85.9006 6.98665 86.8392 6.55998C87.7992 6.13331 88.8446 5.91998 89.9752 5.91998C91.4472 5.91998 92.6632 6.22932 93.6232 6.84798C94.6046 7.44532 95.3832 8.21332 95.9592 9.15199C96.5566 10.0907 96.9619 11.1147 97.1752 12.224C97.4099 13.3333 97.5059 14.3893 97.4632 15.392H85.0792C85.0579 16.1173 85.1432 16.8107 85.3352 17.472C85.5272 18.112 85.8366 18.688 86.2632 19.2C86.6899 19.6907 87.2339 20.0853 87.8952 20.384C88.5566 20.6827 89.3352 20.832 90.2312 20.832C91.3832 20.832 92.3219 20.5653 93.0472 20.032C93.7939 19.4986 94.2846 18.688 94.5192 17.6H97.2072Z" fill="black"/>
<path d="M65.3145 6.30399H67.8745V8.92798H67.9385C69.0691 6.92265 70.8611 5.91998 73.3145 5.91998C74.4025 5.91998 75.3091 6.06931 76.0345 6.36798C76.7598 6.66665 77.3465 7.08265 77.7945 7.61598C78.2425 8.14931 78.5518 8.78932 78.7225 9.53598C78.9145 10.2613 79.0105 11.072 79.0105 11.968V22.848H76.2905V11.648C76.2905 10.624 75.9918 9.81332 75.3945 9.21598C74.7971 8.61865 73.9758 8.31998 72.9305 8.31998C72.0985 8.31998 71.3731 8.44798 70.7545 8.70398C70.1571 8.95998 69.6558 9.32265 69.2505 9.79198C68.8451 10.2613 68.5358 10.816 68.3225 11.456C68.1305 12.0747 68.0345 12.7573 68.0345 13.504V22.848H65.3145V6.30399Z" fill="black"/>
<path d="M53.998 6.30402H56.558V9.79202H56.622C57.2834 8.44802 58.094 7.45602 59.054 6.81602C60.014 6.17602 61.23 5.87735 62.702 5.92002V8.80002C61.614 8.80002 60.686 8.94935 59.918 9.24802C59.15 9.54669 58.5314 9.98401 58.062 10.56C57.5927 11.136 57.2514 11.84 57.038 12.672C56.8247 13.4827 56.718 14.4213 56.718 15.488V22.848H53.998V6.30402Z" fill="black"/>
<path d="M50.0105 22.848H47.4505V20.224H47.3865C46.8105 21.248 46.0745 22.0053 45.1785 22.496C44.2825 22.9653 43.2265 23.2 42.0105 23.2C40.9225 23.2 40.0158 23.0613 39.2905 22.784C38.5651 22.4853 37.9785 22.0693 37.5305 21.536C37.0825 21.0026 36.7625 20.3733 36.5705 19.648C36.3998 18.9013 36.3145 18.08 36.3145 17.184V6.30396H39.0345V17.504C39.0345 18.528 39.3331 19.3386 39.9305 19.936C40.5278 20.5333 41.3491 20.832 42.3945 20.832C43.2265 20.832 43.9411 20.704 44.5385 20.448C45.1571 20.192 45.6691 19.8293 46.0745 19.36C46.4798 18.8906 46.7785 18.3466 46.9705 17.728C47.1838 17.088 47.2905 16.3946 47.2905 15.648V6.30396H50.0105V22.848Z" fill="black"/>
<path d="M19.923 14.592C19.923 15.5947 20.051 16.4907 20.307 17.28C20.5843 18.048 20.9576 18.6986 21.427 19.232C21.8963 19.744 22.4403 20.1387 23.059 20.416C23.699 20.6933 24.371 20.832 25.075 20.832C25.779 20.832 26.4403 20.6933 27.059 20.416C27.699 20.1387 28.2536 19.744 28.723 19.232C29.1923 18.6986 29.555 18.048 29.811 17.28C30.0883 16.4907 30.227 15.5947 30.227 14.592C30.227 13.5893 30.0883 12.704 29.811 11.936C29.555 11.1466 29.1923 10.4853 28.723 9.95198C28.2536 9.41865 27.699 9.01332 27.059 8.73598C26.4403 8.45865 25.779 8.31998 25.075 8.31998C24.371 8.31998 23.699 8.45865 23.059 8.73598C22.4403 9.01332 21.8963 9.41865 21.427 9.95198C20.9576 10.4853 20.5843 11.1466 20.307 11.936C20.051 12.704 19.923 13.5893 19.923 14.592ZM17.043 14.592C17.043 13.376 17.2136 12.2453 17.555 11.2C17.8963 10.1333 18.4083 9.21598 19.091 8.44798C19.7736 7.65865 20.6163 7.03998 21.619 6.59198C22.6216 6.14398 23.7736 5.91998 25.075 5.91998C26.3976 5.91998 27.5496 6.14398 28.531 6.59198C29.5336 7.03998 30.3763 7.65865 31.059 8.44798C31.7416 9.21598 32.2536 10.1333 32.595 11.2C32.9363 12.2453 33.107 13.376 33.107 14.592C33.107 15.808 32.9363 16.9387 32.595 17.984C32.2536 19.0293 31.7416 19.9467 31.059 20.736C30.3763 21.504 29.5336 22.112 28.531 22.56C27.5496 22.9867 26.3976 23.2 25.075 23.2C23.7736 23.2 22.6216 22.9867 21.619 22.56C20.6163 22.112 19.7736 21.504 19.091 20.736C18.4083 19.9467 17.8963 19.0293 17.555 17.984C17.2136 16.9387 17.043 15.808 17.043 14.592Z" fill="black"/>
<path d="M13.408 17.152C13.408 17.92 13.2907 18.6773 13.056 19.424C12.8427 20.1707 12.4693 20.8427 11.936 21.44C11.424 22.016 10.7307 22.4853 9.856 22.848C9.00267 23.1893 7.936 23.36 6.656 23.36C4.52267 23.36 2.88 22.8053 1.728 21.696C0.576 20.5653 0 18.912 0 16.736V15.328H3.04V16.288C3.04 16.9493 3.09333 17.5573 3.2 18.112C3.30667 18.6667 3.488 19.1467 3.744 19.552C4.02133 19.9573 4.39467 20.2773 4.864 20.512C5.35467 20.7253 5.97333 20.832 6.72 20.832C8.10667 20.832 9.056 20.4587 9.568 19.712C10.1013 18.9653 10.368 17.9627 10.368 16.704V0H13.408V17.152Z" fill="black"/>
<path d="M261.211 40.956L257.543 34.852H260.007L262.345 38.8L264.669 34.852H267.119L263.409 41.012V44.848H261.211V40.956Z" fill="black"/>
<path d="M248.262 39.556H249.97C250.222 39.556 250.465 39.5373 250.698 39.5C250.932 39.4627 251.137 39.3927 251.314 39.29C251.492 39.178 251.632 39.024 251.734 38.828C251.846 38.632 251.902 38.3753 251.902 38.058C251.902 37.7407 251.846 37.484 251.734 37.288C251.632 37.092 251.492 36.9427 251.314 36.84C251.137 36.728 250.932 36.6533 250.698 36.616C250.465 36.5787 250.222 36.56 249.97 36.56H248.262V39.556ZM246.064 34.852H250.572C251.198 34.852 251.73 34.9453 252.168 35.132C252.607 35.3093 252.962 35.5473 253.232 35.846C253.512 36.1447 253.713 36.4853 253.834 36.868C253.965 37.2507 254.03 37.6473 254.03 38.058C254.03 38.4593 253.965 38.856 253.834 39.248C253.713 39.6307 253.512 39.9713 253.232 40.27C252.962 40.5687 252.607 40.8113 252.168 40.998C251.73 41.1753 251.198 41.264 250.572 41.264H248.262V44.848H246.064V34.852Z" fill="black"/>
<path d="M235.781 40.984H238.371L237.111 37.316H237.083L235.781 40.984ZM235.991 34.852H238.245L241.983 44.848H239.701L238.945 42.622H235.207L234.423 44.848H232.211L235.991 34.852Z" fill="black"/>
<path d="M222.136 39.374H224.543C225.047 39.374 225.426 39.262 225.678 39.038C225.93 38.814 226.056 38.45 226.056 37.946C226.056 37.4607 225.93 37.1107 225.678 36.896C225.426 36.672 225.047 36.56 224.543 36.56H222.136V39.374ZM219.938 34.852H225.327C225.775 34.852 226.177 34.9267 226.532 35.076C226.896 35.216 227.204 35.412 227.456 35.664C227.717 35.916 227.913 36.21 228.043 36.546C228.183 36.8727 228.254 37.2273 228.254 37.61C228.254 38.198 228.127 38.7067 227.875 39.136C227.633 39.5653 227.232 39.892 226.672 40.116V40.144C226.942 40.2187 227.166 40.3353 227.344 40.494C227.521 40.6433 227.666 40.8253 227.778 41.04C227.89 41.2453 227.969 41.474 228.015 41.726C228.071 41.978 228.109 42.23 228.128 42.482C228.137 42.6407 228.146 42.8273 228.156 43.042C228.165 43.2567 228.179 43.476 228.198 43.7C228.226 43.924 228.263 44.1387 228.31 44.344C228.366 44.54 228.445 44.708 228.548 44.848H226.349C226.228 44.5307 226.153 44.1527 226.125 43.714C226.097 43.2753 226.056 42.8553 226 42.454C225.925 41.9313 225.766 41.5487 225.524 41.306C225.281 41.0633 224.884 40.942 224.333 40.942H222.136V44.848H219.938V34.852Z" fill="black"/>
<path d="M207.639 34.852H215.115V36.7H209.837V38.842H214.681V40.55H209.837V43H215.227V44.848H207.639V34.852Z" fill="black"/>
<path d="M194.041 34.852H196.239V38.688H200.285V34.852H202.483V44.848H200.285V40.536H196.239V44.848H194.041V34.852Z" fill="black"/>
<path d="M184.475 36.7H181.479V34.852H189.669V36.7H186.673V44.848H184.475V36.7Z" fill="black"/>
</svg>
